<svg width="1000" height="1000" xmlns="http://www.w3.org/2000/svg" version="1.1">


<!-- internal style sheet -->
<style type="text/css"><![CDATA[
 rect.background{fill:white}
 rect{fill:none; stroke:rgb(25,25,25); stroke-width:2}
 text{font-family:Helvetica; text-anchor:middle; fill:rgb(25,25,25)}
 line{stroke:rgb(25,25,25); stroke-width:4}
 path{fill:none; stroke:rgb(25,25,25); stroke-width:2}
 circle{fill:white; stroke:black; stroke-width:2}

 path.p0{fill:rgb(0,102,255); stroke:rgb(25,25,25); stroke-width:2}
 path.ps0{fill:rgb(0,77,191); stroke:rgb(20,20,20); stroke-width:2}
 rect.r0{fill:rgb(0,102,255); stroke:rgb(25,25,25); stroke-width:2}
 path.p1{fill:rgb(0,255,102); stroke:rgb(25,25,25); stroke-width:2}
 path.ps1{fill:rgb(0,191,77); stroke:rgb(20,20,20); stroke-width:2}
 rect.r1{fill:rgb(0,255,102); stroke:rgb(25,25,25); stroke-width:2}
 path.p2{fill:rgb(204,255,0); stroke:rgb(25,25,25); stroke-width:2}
 path.ps2{fill:rgb(153,191,0); stroke:rgb(20,20,20); stroke-width:2}
 rect.r2{fill:rgb(204,255,0); stroke:rgb(25,25,25); stroke-width:2}
 path.p3{fill:rgb(255,0,0); stroke:rgb(25,25,25); stroke-width:2}
 path.ps3{fill:rgb(191,0,0); stroke:rgb(20,20,20); stroke-width:2}
 rect.r3{fill:rgb(255,0,0); stroke:rgb(25,25,25); stroke-width:2}
]]></style>

 <rect class="background" width="1000" height="1000"/>
  <!-- cells -->
  <path class="p3" d="M 500 500 L 529 500 L 528 472 L 500 471 L 500 500"/>
  <path class="p3" d="M 529 500 L 558 500 L 557 472 L 528 472 L 529 500"/>
  <path class="p3" d="M 500 471 L 528 472 L 528 443 L 500 442 L 500 471"/>
  <path class="p3" d="M 528 472 L 557 472 L 555 445 L 528 443 L 528 472"/>
  <path class="p3" d="M 558 500 L 588 500 L 585 473 L 557 472 L 558 500"/>
  <path class="p3" d="M 588 500 L 617 500 L 614 474 L 585 473 L 588 500"/>
  <path class="p3" d="M 557 472 L 585 473 L 583 447 L 555 445 L 557 472"/>
  <path class="p3" d="M 585 473 L 614 474 L 610 448 L 583 447 L 585 473"/>
  <path class="p3" d="M 500 442 L 528 443 L 527 415 L 500 412 L 500 442"/>
  <path class="p3" d="M 528 443 L 555 445 L 553 417 L 527 415 L 528 443"/>
  <path class="p3" d="M 500 412 L 527 415 L 526 386 L 500 383 L 500 412"/>
  <path class="p3" d="M 527 415 L 553 417 L 552 390 L 526 386 L 527 415"/>
  <path class="p3" d="M 555 445 L 583 447 L 580 420 L 553 417 L 555 445"/>
  <path class="p3" d="M 583 447 L 610 448 L 607 422 L 580 420 L 583 447"/>
  <path class="p3" d="M 553 417 L 580 420 L 578 393 L 552 390 L 553 417"/>
  <path class="p3" d="M 580 420 L 607 422 L 603 397 L 578 393 L 580 420"/>
  <path class="p3" d="M 617 500 L 646 500 L 642 475 L 614 474 L 617 500"/>
  <path class="p3" d="M 646 500 L 675 500 L 670 476 L 642 475 L 646 500"/>
  <path class="p3" d="M 614 474 L 642 475 L 638 450 L 610 448 L 614 474"/>
  <path class="p3" d="M 642 475 L 670 476 L 665 452 L 638 450 L 642 475"/>
  <path class="p3" d="M 675 500 L 705 500 L 699 477 L 670 476 L 675 500"/>
  <path class="p3" d="M 705 500 L 734 500 L 727 477 L 699 477 L 705 500"/>
  <path class="p3" d="M 670 476 L 699 477 L 693 453 L 665 452 L 670 476"/>
  <path class="p3" d="M 699 477 L 727 477 L 720 455 L 693 453 L 699 477"/>
  <path class="p3" d="M 610 448 L 638 450 L 634 425 L 607 422 L 610 448"/>
  <path class="p3" d="M 638 450 L 665 452 L 660 427 L 634 425 L 638 450"/>
  <path class="p3" d="M 607 422 L 634 425 L 629 400 L 603 397 L 607 422"/>
  <path class="p3" d="M 634 425 L 660 427 L 655 403 L 629 400 L 634 425"/>
  <path class="p3" d="M 665 452 L 693 453 L 687 430 L 660 427 L 665 452"/>
  <path class="p3" d="M 693 453 L 720 455 L 714 432 L 687 430 L 693 453"/>
  <path class="p3" d="M 660 427 L 687 430 L 681 407 L 655 403 L 660 427"/>
  <path class="p3" d="M 687 430 L 714 432 L 707 410 L 681 407 L 687 430"/>
  <path class="p3" d="M 500 383 L 526 386 L 525 358 L 500 354 L 500 383"/>
  <path class="p3" d="M 526 386 L 552 390 L 550 362 L 525 358 L 526 386"/>
  <path class="p3" d="M 500 354 L 525 358 L 524 330 L 500 325 L 500 354"/>
  <path class="p3" d="M 525 358 L 550 362 L 548 335 L 524 330 L 525 358"/>
  <path class="p3" d="M 552 390 L 578 393 L 575 366 L 550 362 L 552 390"/>
  <path class="p3" d="M 578 393 L 603 397 L 600 371 L 575 366 L 578 393"/>
  <path class="p3" d="M 550 362 L 575 366 L 573 340 L 548 335 L 550 362"/>
  <path class="p3" d="M 575 366 L 600 371 L 597 345 L 573 340 L 575 366"/>
  <path class="p3" d="M 500 325 L 524 330 L 523 301 L 500 295 L 500 325"/>
  <path class="p3" d="M 524 330 L 548 335 L 547 307 L 523 301 L 524 330"/>
  <path class="p3" d="M 500 295 L 523 301 L 523 273 L 500 266 L 500 295"/>
  <path class="p3" d="M 523 301 L 547 307 L 545 280 L 523 273 L 523 301"/>
  <path class="p3" d="M 548 335 L 573 340 L 570 313 L 547 307 L 548 335"/>
  <path class="p3" d="M 573 340 L 597 345 L 593 319 L 570 313 L 573 340"/>
  <path class="p3" d="M 547 307 L 570 313 L 568 286 L 545 280 L 547 307"/>
  <path class="p3" d="M 570 313 L 593 319 L 590 293 L 568 286 L 570 313"/>
  <path class="p3" d="M 603 397 L 629 400 L 625 375 L 600 371 L 603 397"/>
  <path class="p3" d="M 629 400 L 655 403 L 650 379 L 625 375 L 629 400"/>
  <path class="p3" d="M 600 371 L 625 375 L 621 350 L 597 345 L 600 371"/>
  <path class="p3" d="M 625 375 L 650 379 L 645 355 L 621 350 L 625 375"/>
  <path class="p3" d="M 655 403 L 681 407 L 675 383 L 650 379 L 655 403"/>
  <path class="p3" d="M 681 407 L 707 410 L 700 387 L 675 383 L 681 407"/>
  <path class="p3" d="M 650 379 L 675 383 L 669 360 L 645 355 L 650 379"/>
  <path class="p3" d="M 675 383 L 700 387 L 694 365 L 669 360 L 675 383"/>
  <path class="p3" d="M 597 345 L 621 350 L 617 325 L 593 319 L 597 345"/>
  <path class="p3" d="M 621 350 L 645 355 L 640 331 L 617 325 L 621 350"/>
  <path class="p3" d="M 593 319 L 617 325 L 613 300 L 590 293 L 593 319"/>
  <path class="p3" d="M 617 325 L 640 331 L 635 306 L 613 300 L 617 325"/>
  <path class="p3" d="M 645 355 L 669 360 L 663 337 L 640 331 L 645 355"/>
  <path class="p3" d="M 669 360 L 694 365 L 687 342 L 663 337 L 669 360"/>
  <path class="p3" d="M 640 331 L 663 337 L 658 313 L 635 306 L 640 331"/>
  <path class="p3" d="M 663 337 L 687 342 L 680 320 L 658 313 L 663 337"/>
  <path class="p3" d="M 920 500 L 918 459 L 893 461 L 897 500 L 920 500"/>
  <line x1="920" y1="500" x2="918" y2="459"/>
  <path class="p3" d="M 918 459 L 912 418 L 887 423 L 893 461 L 918 459"/>
  <line x1="918" y1="459" x2="912" y2="418"/>
  <path class="p3" d="M 897 500 L 893 461 L 868 464 L 873 500 L 897 500"/>
  <path class="p3" d="M 893 461 L 887 423 L 862 428 L 868 464 L 893 461"/>
  <path class="p3" d="M 912 418 L 902 378 L 877 385 L 887 423 L 912 418"/>
  <line x1="912" y1="418" x2="902" y2="378"/>
  <path class="p3" d="M 902 378 L 888 339 L 865 348 L 877 385 L 902 378"/>
  <line x1="902" y1="378" x2="888" y2="339"/>
  <path class="p3" d="M 887 423 L 877 385 L 852 392 L 862 428 L 887 423"/>
  <path class="p3" d="M 877 385 L 865 348 L 843 357 L 852 392 L 877 385"/>
  <path class="p3" d="M 873 500 L 868 464 L 844 466 L 850 500 L 873 500"/>
  <path class="p3" d="M 868 464 L 862 428 L 837 432 L 844 466 L 868 464"/>
  <path class="p3" d="M 850 500 L 844 466 L 820 469 L 827 500 L 850 500"/>
  <path class="p3" d="M 844 466 L 837 432 L 812 437 L 820 469 L 844 466"/>
  <path class="p3" d="M 862 428 L 852 392 L 829 399 L 837 432 L 862 428"/>
  <path class="p3" d="M 852 392 L 843 357 L 820 366 L 829 399 L 852 392"/>
  <path class="p3" d="M 837 432 L 829 399 L 805 406 L 812 437 L 837 432"/>
  <path class="p3" d="M 829 399 L 820 366 L 797 375 L 805 406 L 829 399"/>
  <path class="p3" d="M 888 339 L 870 302 L 848 313 L 865 348 L 888 339"/>
  <line x1="888" y1="339" x2="870" y2="302"/>
  <path class="p3" d="M 870 302 L 849 267 L 829 280 L 848 313 L 870 302"/>
  <line x1="870" y1="302" x2="849" y2="267"/>
  <path class="p3" d="M 865 348 L 848 313 L 826 325 L 843 357 L 865 348"/>
  <path class="p3" d="M 848 313 L 829 280 L 809 292 L 826 325 L 848 313"/>
  <path class="p3" d="M 849 267 L 825 234 L 806 248 L 829 280 L 849 267"/>
  <line x1="849" y1="267" x2="825" y2="234"/>
  <path class="p3" d="M 825 234 L 797 203 L 782 218 L 806 248 L 825 234"/>
  <line x1="825" y1="234" x2="797" y2="203"/>
  <path class="p3" d="M 829 280 L 806 248 L 788 262 L 809 292 L 829 280"/>
  <path class="p3" d="M 806 248 L 782 218 L 768 232 L 788 262 L 806 248"/>
  <path class="p3" d="M 843 357 L 826 325 L 804 335 L 820 366 L 843 357"/>
  <path class="p3" d="M 826 325 L 809 292 L 788 305 L 804 335 L 826 325"/>
  <path class="p3" d="M 820 366 L 804 335 L 783 346 L 797 375 L 820 366"/>
  <path class="p3" d="M 804 335 L 788 305 L 768 318 L 783 346 L 804 335"/>
  <path class="p3" d="M 809 292 L 788 262 L 771 276 L 788 305 L 809 292"/>
  <path class="p3" d="M 788 262 L 768 232 L 753 247 L 771 276 L 788 262"/>
  <path class="p3" d="M 788 305 L 771 276 L 753 290 L 768 318 L 788 305"/>
  <path class="p3" d="M 771 276 L 753 247 L 739 261 L 753 290 L 771 276"/>
  <path class="p3" d="M 827 500 L 820 469 L 796 471 L 804 500 L 827 500"/>
  <path class="p3" d="M 820 469 L 812 437 L 789 442 L 796 471 L 820 469"/>
  <path class="p3" d="M 804 500 L 796 471 L 773 473 L 780 500 L 804 500"/>
  <path class="p3" d="M 796 471 L 789 442 L 766 446 L 773 473 L 796 471"/>
  <path class="p3" d="M 812 437 L 805 406 L 782 413 L 789 442 L 812 437"/>
  <path class="p3" d="M 805 406 L 797 375 L 775 383 L 782 413 L 805 406"/>
  <path class="p3" d="M 789 442 L 782 413 L 759 419 L 766 446 L 789 442"/>
  <path class="p3" d="M 782 413 L 775 383 L 752 392 L 759 419 L 782 413"/>
  <path class="p3" d="M 780 500 L 773 473 L 750 475 L 757 500 L 780 500"/>
  <path class="p3" d="M 773 473 L 766 446 L 743 451 L 750 475 L 773 473"/>
  <path class="p3" d="M 757 500 L 750 475 L 727 477 L 734 500 L 757 500"/>
  <path class="p3" d="M 750 475 L 743 451 L 720 455 L 727 477 L 750 475"/>
  <path class="p3" d="M 766 446 L 759 419 L 736 426 L 743 451 L 766 446"/>
  <path class="p3" d="M 759 419 L 752 392 L 730 401 L 736 426 L 759 419"/>
  <path class="p3" d="M 743 451 L 736 426 L 714 432 L 720 455 L 743 451"/>
  <path class="p3" d="M 736 426 L 730 401 L 707 410 L 714 432 L 736 426"/>
  <path class="p3" d="M 797 375 L 783 346 L 762 357 L 775 383 L 797 375"/>
  <path class="p3" d="M 783 346 L 768 318 L 749 330 L 762 357 L 783 346"/>
  <path class="p3" d="M 775 383 L 762 357 L 741 367 L 752 392 L 775 383"/>
  <path class="p3" d="M 762 357 L 749 330 L 731 341 L 741 367 L 762 357"/>
  <path class="p3" d="M 768 318 L 753 290 L 737 303 L 749 330 L 768 318"/>
  <path class="p3" d="M 753 290 L 739 261 L 724 276 L 737 303 L 753 290"/>
  <path class="p3" d="M 749 330 L 737 303 L 720 316 L 731 341 L 749 330"/>
  <path class="p3" d="M 737 303 L 724 276 L 709 291 L 720 316 L 737 303"/>
  <path class="p3" d="M 752 392 L 741 367 L 721 377 L 730 401 L 752 392"/>
  <path class="p3" d="M 741 367 L 731 341 L 712 353 L 721 377 L 741 367"/>
  <path class="p3" d="M 730 401 L 721 377 L 700 387 L 707 410 L 730 401"/>
  <path class="p3" d="M 721 377 L 712 353 L 694 365 L 700 387 L 721 377"/>
  <path class="p3" d="M 731 341 L 720 316 L 703 329 L 712 353 L 731 341"/>
  <path class="p3" d="M 720 316 L 709 291 L 695 305 L 703 329 L 720 316"/>
  <path class="p3" d="M 712 353 L 703 329 L 687 342 L 694 365 L 712 353"/>
  <path class="p3" d="M 703 329 L 695 305 L 680 320 L 687 342 L 703 329"/>
  <path class="p3" d="M 500 80 L 500 103 L 539 107 L 541 82 L 500 80"/>
  <line x1="500" y1="80" x2="541" y2="82"/>
  <path class="p3" d="M 500 103 L 500 127 L 536 132 L 539 107 L 500 103"/>
  <path class="p3" d="M 541 82 L 539 107 L 577 113 L 582 88 L 541 82"/>
  <line x1="541" y1="82" x2="582" y2="88"/>
  <path class="p3" d="M 539 107 L 536 132 L 572 138 L 577 113 L 539 107"/>
  <path class="p3" d="M 500 127 L 500 150 L 534 156 L 536 132 L 500 127"/>
  <path class="p3" d="M 500 150 L 500 173 L 531 180 L 534 156 L 500 150"/>
  <path class="p3" d="M 536 132 L 534 156 L 568 163 L 572 138 L 536 132"/>
  <path class="p3" d="M 534 156 L 531 180 L 563 188 L 568 163 L 534 156"/>
  <path class="p3" d="M 582 88 L 577 113 L 615 123 L 622 98 L 582 88"/>
  <line x1="582" y1="88" x2="622" y2="98"/>
  <path class="p3" d="M 577 113 L 572 138 L 608 148 L 615 123 L 577 113"/>
  <path class="p3" d="M 622 98 L 615 123 L 652 135 L 661 112 L 622 98"/>
  <line x1="622" y1="98" x2="661" y2="112"/>
  <path class="p3" d="M 615 123 L 608 148 L 643 157 L 652 135 L 615 123"/>
  <path class="p3" d="M 572 138 L 568 163 L 601 171 L 608 148 L 572 138"/>
  <path class="p3" d="M 568 163 L 563 188 L 594 195 L 601 171 L 568 163"/>
  <path class="p3" d="M 608 148 L 601 171 L 634 180 L 643 157 L 608 148"/>
  <path class="p3" d="M 601 171 L 594 195 L 625 203 L 634 180 L 601 171"/>
  <path class="p3" d="M 500 173 L 500 196 L 529 204 L 531 180 L 500 173"/>
  <path class="p3" d="M 500 196 L 500 220 L 527 227 L 529 204 L 500 196"/>
  <path class="p3" d="M 531 180 L 529 204 L 558 211 L 563 188 L 531 180"/>
  <path class="p3" d="M 529 204 L 527 227 L 554 234 L 558 211 L 529 204"/>
  <path class="p3" d="M 500 220 L 500 243 L 525 250 L 527 227 L 500 220"/>
  <path class="p3" d="M 500 243 L 500 266 L 523 273 L 525 250 L 500 243"/>
  <path class="p3" d="M 527 227 L 525 250 L 549 257 L 554 234 L 527 227"/>
  <path class="p3" d="M 525 250 L 523 273 L 545 280 L 549 257 L 525 250"/>
  <path class="p3" d="M 563 188 L 558 211 L 587 218 L 594 195 L 563 188"/>
  <path class="p3" d="M 558 211 L 554 234 L 581 241 L 587 218 L 558 211"/>
  <path class="p3" d="M 594 195 L 587 218 L 617 225 L 625 203 L 594 195"/>
  <path class="p3" d="M 587 218 L 581 241 L 608 248 L 617 225 L 587 218"/>
  <path class="p3" d="M 554 234 L 549 257 L 574 264 L 581 241 L 554 234"/>
  <path class="p3" d="M 549 257 L 545 280 L 568 286 L 574 264 L 549 257"/>
  <path class="p3" d="M 581 241 L 574 264 L 599 270 L 608 248 L 581 241"/>
  <path class="p3" d="M 574 264 L 568 286 L 590 293 L 599 270 L 574 264"/>
  <path class="p3" d="M 661 112 L 652 135 L 687 152 L 698 130 L 661 112"/>
  <line x1="661" y1="112" x2="698" y2="130"/>
  <path class="p3" d="M 652 135 L 643 157 L 675 174 L 687 152 L 652 135"/>
  <path class="p3" d="M 698 130 L 687 152 L 720 171 L 733 151 L 698 130"/>
  <line x1="698" y1="130" x2="733" y2="151"/>
  <path class="p3" d="M 687 152 L 675 174 L 708 191 L 720 171 L 687 152"/>
  <path class="p3" d="M 643 157 L 634 180 L 665 196 L 675 174 L 643 157"/>
  <path class="p3" d="M 634 180 L 625 203 L 654 217 L 665 196 L 634 180"/>
  <path class="p3" d="M 675 174 L 665 196 L 695 212 L 708 191 L 675 174"/>
  <path class="p3" d="M 665 196 L 654 217 L 682 232 L 695 212 L 665 196"/>
  <path class="p3" d="M 733 151 L 720 171 L 752 194 L 766 175 L 733 151"/>
  <line x1="733" y1="151" x2="766" y2="175"/>
  <path class="p3" d="M 720 171 L 708 191 L 738 212 L 752 194 L 720 171"/>
  <path class="p3" d="M 766 175 L 752 194 L 782 218 L 797 203 L 766 175"/>
  <line x1="766" y1="175" x2="797" y2="203"/>
  <path class="p3" d="M 752 194 L 738 212 L 768 232 L 782 218 L 752 194"/>
  <path class="p3" d="M 708 191 L 695 212 L 724 229 L 738 212 L 708 191"/>
  <path class="p3" d="M 695 212 L 682 232 L 710 247 L 724 229 L 695 212"/>
  <path class="p3" d="M 738 212 L 724 229 L 753 247 L 768 232 L 738 212"/>
  <path class="p3" d="M 724 229 L 710 247 L 739 261 L 753 247 L 724 229"/>
  <path class="p3" d="M 625 203 L 617 225 L 643 238 L 654 217 L 625 203"/>
  <path class="p3" d="M 617 225 L 608 248 L 633 259 L 643 238 L 617 225"/>
  <path class="p3" d="M 654 217 L 643 238 L 670 251 L 682 232 L 654 217"/>
  <path class="p3" d="M 643 238 L 633 259 L 659 269 L 670 251 L 643 238"/>
  <path class="p3" d="M 608 248 L 599 270 L 623 279 L 633 259 L 608 248"/>
  <path class="p3" d="M 599 270 L 590 293 L 613 300 L 623 279 L 599 270"/>
  <path class="p3" d="M 633 259 L 623 279 L 647 288 L 659 269 L 633 259"/>
  <path class="p3" d="M 623 279 L 613 300 L 635 306 L 647 288 L 623 279"/>
  <path class="p3" d="M 682 232 L 670 251 L 697 263 L 710 247 L 682 232"/>
  <path class="p3" d="M 670 251 L 659 269 L 684 280 L 697 263 L 670 251"/>
  <path class="p3" d="M 710 247 L 697 263 L 724 276 L 739 261 L 710 247"/>
  <path class="p3" d="M 697 263 L 684 280 L 709 291 L 724 276 L 697 263"/>
  <path class="p3" d="M 659 269 L 647 288 L 671 297 L 684 280 L 659 269"/>
  <path class="p3" d="M 647 288 L 635 306 L 658 313 L 671 297 L 647 288"/>
  <path class="p3" d="M 684 280 L 671 297 L 695 305 L 709 291 L 684 280"/>
  <path class="p3" d="M 671 297 L 658 313 L 680 320 L 695 305 L 671 297"/>
  <path class="p3" d="M 500 500 L 500 471 L 472 472 L 471 500 L 500 500"/>
  <path class="p3" d="M 500 471 L 500 442 L 472 443 L 472 472 L 500 471"/>
  <path class="p3" d="M 471 500 L 472 472 L 443 472 L 442 500 L 471 500"/>
  <path class="p3" d="M 472 472 L 472 443 L 445 445 L 443 472 L 472 472"/>
  <path class="p3" d="M 500 442 L 500 412 L 473 415 L 472 443 L 500 442"/>
  <path class="p3" d="M 500 412 L 500 383 L 474 386 L 473 415 L 500 412"/>
  <path class="p3" d="M 472 443 L 473 415 L 447 417 L 445 445 L 472 443"/>
  <path class="p3" d="M 473 415 L 474 386 L 448 390 L 447 417 L 473 415"/>
  <path class="p3" d="M 442 500 L 443 472 L 415 473 L 412 500 L 442 500"/>
  <path class="p3" d="M 443 472 L 445 445 L 417 447 L 415 473 L 443 472"/>
  <path class="p3" d="M 412 500 L 415 473 L 386 474 L 383 500 L 412 500"/>
  <path class="p3" d="M 415 473 L 417 447 L 390 448 L 386 474 L 415 473"/>
  <path class="p3" d="M 445 445 L 447 417 L 420 420 L 417 447 L 445 445"/>
  <path class="p3" d="M 447 417 L 448 390 L 422 393 L 420 420 L 447 417"/>
  <path class="p3" d="M 417 447 L 420 420 L 393 422 L 390 448 L 417 447"/>
  <path class="p3" d="M 420 420 L 422 393 L 397 397 L 393 422 L 420 420"/>
  <path class="p3" d="M 500 383 L 500 354 L 475 358 L 474 386 L 500 383"/>
  <path class="p3" d="M 500 354 L 500 325 L 476 330 L 475 358 L 500 354"/>
  <path class="p3" d="M 474 386 L 475 358 L 450 362 L 448 390 L 474 386"/>
  <path class="p3" d="M 475 358 L 476 330 L 452 335 L 450 362 L 475 358"/>
  <path class="p3" d="M 500 325 L 500 295 L 477 301 L 476 330 L 500 325"/>
  <path class="p3" d="M 500 295 L 500 266 L 477 273 L 477 301 L 500 295"/>
  <path class="p3" d="M 476 330 L 477 301 L 453 307 L 452 335 L 476 330"/>
  <path class="p3" d="M 477 301 L 477 273 L 455 280 L 453 307 L 477 301"/>
  <path class="p3" d="M 448 390 L 450 362 L 425 366 L 422 393 L 448 390"/>
  <path class="p3" d="M 450 362 L 452 335 L 427 340 L 425 366 L 450 362"/>
  <path class="p3" d="M 422 393 L 425 366 L 400 371 L 397 397 L 422 393"/>
  <path class="p3" d="M 425 366 L 427 340 L 403 345 L 400 371 L 425 366"/>
  <path class="p3" d="M 452 335 L 453 307 L 430 313 L 427 340 L 452 335"/>
  <path class="p3" d="M 453 307 L 455 280 L 432 286 L 430 313 L 453 307"/>
  <path class="p3" d="M 427 340 L 430 313 L 407 319 L 403 345 L 427 340"/>
  <path class="p3" d="M 430 313 L 432 286 L 410 293 L 407 319 L 430 313"/>
  <path class="p3" d="M 383 500 L 386 474 L 358 475 L 354 500 L 383 500"/>
  <path class="p3" d="M 386 474 L 390 448 L 362 450 L 358 475 L 386 474"/>
  <path class="p3" d="M 354 500 L 358 475 L 330 476 L 325 500 L 354 500"/>
  <path class="p3" d="M 358 475 L 362 450 L 335 452 L 330 476 L 358 475"/>
  <path class="p3" d="M 390 448 L 393 422 L 366 425 L 362 450 L 390 448"/>
  <path class="p3" d="M 393 422 L 397 397 L 371 400 L 366 425 L 393 422"/>
  <path class="p3" d="M 362 450 L 366 425 L 340 427 L 335 452 L 362 450"/>
  <path class="p3" d="M 366 425 L 371 400 L 345 403 L 340 427 L 366 425"/>
  <path class="p3" d="M 325 500 L 330 476 L 301 477 L 295 500 L 325 500"/>
  <path class="p3" d="M 330 476 L 335 452 L 307 453 L 301 477 L 330 476"/>
  <path class="p3" d="M 295 500 L 301 477 L 273 477 L 266 500 L 295 500"/>
  <path class="p3" d="M 301 477 L 307 453 L 280 455 L 273 477 L 301 477"/>
  <path class="p3" d="M 335 452 L 340 427 L 313 430 L 307 453 L 335 452"/>
  <path class="p3" d="M 340 427 L 345 403 L 319 407 L 313 430 L 340 427"/>
  <path class="p3" d="M 307 453 L 313 430 L 286 432 L 280 455 L 307 453"/>
  <path class="p3" d="M 313 430 L 319 407 L 293 410 L 286 432 L 313 430"/>
  <path class="p3" d="M 397 397 L 400 371 L 375 375 L 371 400 L 397 397"/>
  <path class="p3" d="M 400 371 L 403 345 L 379 350 L 375 375 L 400 371"/>
  <path class="p3" d="M 371 400 L 375 375 L 350 379 L 345 403 L 371 400"/>
  <path class="p3" d="M 375 375 L 379 350 L 355 355 L 350 379 L 375 375"/>
  <path class="p3" d="M 403 345 L 407 319 L 383 325 L 379 350 L 403 345"/>
  <path class="p3" d="M 407 319 L 410 293 L 387 300 L 383 325 L 407 319"/>
  <path class="p3" d="M 379 350 L 383 325 L 360 331 L 355 355 L 379 350"/>
  <path class="p3" d="M 383 325 L 387 300 L 365 306 L 360 331 L 383 325"/>
  <path class="p3" d="M 345 403 L 350 379 L 325 383 L 319 407 L 345 403"/>
  <path class="p3" d="M 350 379 L 355 355 L 331 360 L 325 383 L 350 379"/>
  <path class="p3" d="M 319 407 L 325 383 L 300 387 L 293 410 L 319 407"/>
  <path class="p3" d="M 325 383 L 331 360 L 306 365 L 300 387 L 325 383"/>
  <path class="p3" d="M 355 355 L 360 331 L 337 337 L 331 360 L 355 355"/>
  <path class="p3" d="M 360 331 L 365 306 L 342 313 L 337 337 L 360 331"/>
  <path class="p3" d="M 331 360 L 337 337 L 313 342 L 306 365 L 331 360"/>
  <path class="p3" d="M 337 337 L 342 313 L 320 320 L 313 342 L 337 337"/>
  <path class="p3" d="M 500 80 L 459 82 L 461 107 L 500 103 L 500 80"/>
  <line x1="500" y1="80" x2="459" y2="82"/>
  <path class="p3" d="M 459 82 L 418 88 L 423 113 L 461 107 L 459 82"/>
  <line x1="459" y1="82" x2="418" y2="88"/>
  <path class="p3" d="M 500 103 L 461 107 L 464 132 L 500 127 L 500 103"/>
  <path class="p3" d="M 461 107 L 423 113 L 428 138 L 464 132 L 461 107"/>
  <path class="p3" d="M 418 88 L 378 98 L 385 123 L 423 113 L 418 88"/>
  <line x1="418" y1="88" x2="378" y2="98"/>
  <path class="p3" d="M 378 98 L 339 112 L 348 135 L 385 123 L 378 98"/>
  <line x1="378" y1="98" x2="339" y2="112"/>
  <path class="p3" d="M 423 113 L 385 123 L 392 148 L 428 138 L 423 113"/>
  <path class="p3" d="M 385 123 L 348 135 L 357 157 L 392 148 L 385 123"/>
  <path class="p3" d="M 500 127 L 464 132 L 466 156 L 500 150 L 500 127"/>
  <path class="p3" d="M 464 132 L 428 138 L 432 163 L 466 156 L 464 132"/>
  <path class="p3" d="M 500 150 L 466 156 L 469 180 L 500 173 L 500 150"/>
  <path class="p3" d="M 466 156 L 432 163 L 437 188 L 469 180 L 466 156"/>
  <path class="p3" d="M 428 138 L 392 148 L 399 171 L 432 163 L 428 138"/>
  <path class="p3" d="M 392 148 L 357 157 L 366 180 L 399 171 L 392 148"/>
  <path class="p3" d="M 432 163 L 399 171 L 406 195 L 437 188 L 432 163"/>
  <path class="p3" d="M 399 171 L 366 180 L 375 203 L 406 195 L 399 171"/>
  <path class="p3" d="M 339 112 L 302 130 L 313 152 L 348 135 L 339 112"/>
  <line x1="339" y1="112" x2="302" y2="130"/>
  <path class="p3" d="M 302 130 L 267 151 L 280 171 L 313 152 L 302 130"/>
  <line x1="302" y1="130" x2="267" y2="151"/>
  <path class="p3" d="M 348 135 L 313 152 L 325 174 L 357 157 L 348 135"/>
  <path class="p3" d="M 313 152 L 280 171 L 292 191 L 325 174 L 313 152"/>
  <path class="p3" d="M 267 151 L 234 175 L 248 194 L 280 171 L 267 151"/>
  <line x1="267" y1="151" x2="234" y2="175"/>
  <path class="p3" d="M 234 175 L 203 203 L 218 218 L 248 194 L 234 175"/>
  <line x1="234" y1="175" x2="203" y2="203"/>
  <path class="p3" d="M 280 171 L 248 194 L 262 212 L 292 191 L 280 171"/>
  <path class="p3" d="M 248 194 L 218 218 L 232 232 L 262 212 L 248 194"/>
  <path class="p3" d="M 357 157 L 325 174 L 335 196 L 366 180 L 357 157"/>
  <path class="p3" d="M 325 174 L 292 191 L 305 212 L 335 196 L 325 174"/>
  <path class="p3" d="M 366 180 L 335 196 L 346 217 L 375 203 L 366 180"/>
  <path class="p3" d="M 335 196 L 305 212 L 318 232 L 346 217 L 335 196"/>
  <path class="p3" d="M 292 191 L 262 212 L 276 229 L 305 212 L 292 191"/>
  <path class="p3" d="M 262 212 L 232 232 L 247 247 L 276 229 L 262 212"/>
  <path class="p3" d="M 305 212 L 276 229 L 290 247 L 318 232 L 305 212"/>
  <path class="p3" d="M 276 229 L 247 247 L 261 261 L 290 247 L 276 229"/>
  <path class="p3" d="M 500 173 L 469 180 L 471 204 L 500 196 L 500 173"/>
  <path class="p3" d="M 469 180 L 437 188 L 442 211 L 471 204 L 469 180"/>
  <path class="p3" d="M 500 196 L 471 204 L 473 227 L 500 220 L 500 196"/>
  <path class="p3" d="M 471 204 L 442 211 L 446 234 L 473 227 L 471 204"/>
  <path class="p3" d="M 437 188 L 406 195 L 413 218 L 442 211 L 437 188"/>
  <path class="p3" d="M 406 195 L 375 203 L 383 225 L 413 218 L 406 195"/>
  <path class="p3" d="M 442 211 L 413 218 L 419 241 L 446 234 L 442 211"/>
  <path class="p3" d="M 413 218 L 383 225 L 392 248 L 419 241 L 413 218"/>
  <path class="p3" d="M 500 220 L 473 227 L 475 250 L 500 243 L 500 220"/>
  <path class="p3" d="M 473 227 L 446 234 L 451 257 L 475 250 L 473 227"/>
  <path class="p3" d="M 500 243 L 475 250 L 477 273 L 500 266 L 500 243"/>
  <path class="p3" d="M 475 250 L 451 257 L 455 280 L 477 273 L 475 250"/>
  <path class="p3" d="M 446 234 L 419 241 L 426 264 L 451 257 L 446 234"/>
  <path class="p3" d="M 419 241 L 392 248 L 401 270 L 426 264 L 419 241"/>
  <path class="p3" d="M 451 257 L 426 264 L 432 286 L 455 280 L 451 257"/>
  <path class="p3" d="M 426 264 L 401 270 L 410 293 L 432 286 L 426 264"/>
  <path class="p3" d="M 375 203 L 346 217 L 357 238 L 383 225 L 375 203"/>
  <path class="p3" d="M 346 217 L 318 232 L 330 251 L 357 238 L 346 217"/>
  <path class="p3" d="M 383 225 L 357 238 L 367 259 L 392 248 L 383 225"/>
  <path class="p3" d="M 357 238 L 330 251 L 341 269 L 367 259 L 357 238"/>
  <path class="p3" d="M 318 232 L 290 247 L 303 263 L 330 251 L 318 232"/>
  <path class="p3" d="M 290 247 L 261 261 L 276 276 L 303 263 L 290 247"/>
  <path class="p3" d="M 330 251 L 303 263 L 316 280 L 341 269 L 330 251"/>
  <path class="p3" d="M 303 263 L 276 276 L 291 291 L 316 280 L 303 263"/>
  <path class="p3" d="M 392 248 L 367 259 L 377 279 L 401 270 L 392 248"/>
  <path class="p3" d="M 367 259 L 341 269 L 353 288 L 377 279 L 367 259"/>
  <path class="p3" d="M 401 270 L 377 279 L 387 300 L 410 293 L 401 270"/>
  <path class="p3" d="M 377 279 L 353 288 L 365 306 L 387 300 L 377 279"/>
  <path class="p3" d="M 341 269 L 316 280 L 329 297 L 353 288 L 341 269"/>
  <path class="p3" d="M 316 280 L 291 291 L 305 305 L 329 297 L 316 280"/>
  <path class="p3" d="M 353 288 L 329 297 L 342 313 L 365 306 L 353 288"/>
  <path class="p3" d="M 329 297 L 305 305 L 320 320 L 342 313 L 329 297"/>
  <path class="p3" d="M 80 500 L 103 500 L 107 461 L 82 459 L 80 500"/>
  <line x1="80" y1="500" x2="82" y2="459"/>
  <path class="p3" d="M 103 500 L 127 500 L 132 464 L 107 461 L 103 500"/>
  <path class="p3" d="M 82 459 L 107 461 L 113 423 L 88 418 L 82 459"/>
  <line x1="82" y1="459" x2="88" y2="418"/>
  <path class="p3" d="M 107 461 L 132 464 L 138 428 L 113 423 L 107 461"/>
  <path class="p3" d="M 127 500 L 150 500 L 156 466 L 132 464 L 127 500"/>
  <path class="p3" d="M 150 500 L 173 500 L 180 469 L 156 466 L 150 500"/>
  <path class="p3" d="M 132 464 L 156 466 L 163 432 L 138 428 L 132 464"/>
  <path class="p3" d="M 156 466 L 180 469 L 188 437 L 163 432 L 156 466"/>
  <path class="p3" d="M 88 418 L 113 423 L 123 385 L 98 378 L 88 418"/>
  <line x1="88" y1="418" x2="98" y2="378"/>
  <path class="p3" d="M 113 423 L 138 428 L 148 392 L 123 385 L 113 423"/>
  <path class="p3" d="M 98 378 L 123 385 L 135 348 L 112 339 L 98 378"/>
  <line x1="98" y1="378" x2="112" y2="339"/>
  <path class="p3" d="M 123 385 L 148 392 L 157 357 L 135 348 L 123 385"/>
  <path class="p3" d="M 138 428 L 163 432 L 171 399 L 148 392 L 138 428"/>
  <path class="p3" d="M 163 432 L 188 437 L 195 406 L 171 399 L 163 432"/>
  <path class="p3" d="M 148 392 L 171 399 L 180 366 L 157 357 L 148 392"/>
  <path class="p3" d="M 171 399 L 195 406 L 203 375 L 180 366 L 171 399"/>
  <path class="p3" d="M 173 500 L 196 500 L 204 471 L 180 469 L 173 500"/>
  <path class="p3" d="M 196 500 L 220 500 L 227 473 L 204 471 L 196 500"/>
  <path class="p3" d="M 180 469 L 204 471 L 211 442 L 188 437 L 180 469"/>
  <path class="p3" d="M 204 471 L 227 473 L 234 446 L 211 442 L 204 471"/>
  <path class="p3" d="M 220 500 L 243 500 L 250 475 L 227 473 L 220 500"/>
  <path class="p3" d="M 243 500 L 266 500 L 273 477 L 250 475 L 243 500"/>
  <path class="p3" d="M 227 473 L 250 475 L 257 451 L 234 446 L 227 473"/>
  <path class="p3" d="M 250 475 L 273 477 L 280 455 L 257 451 L 250 475"/>
  <path class="p3" d="M 188 437 L 211 442 L 218 413 L 195 406 L 188 437"/>
  <path class="p3" d="M 211 442 L 234 446 L 241 419 L 218 413 L 211 442"/>
  <path class="p3" d="M 195 406 L 218 413 L 225 383 L 203 375 L 195 406"/>
  <path class="p3" d="M 218 413 L 241 419 L 248 392 L 225 383 L 218 413"/>
  <path class="p3" d="M 234 446 L 257 451 L 264 426 L 241 419 L 234 446"/>
  <path class="p3" d="M 257 451 L 280 455 L 286 432 L 264 426 L 257 451"/>
  <path class="p3" d="M 241 419 L 264 426 L 270 401 L 248 392 L 241 419"/>
  <path class="p3" d="M 264 426 L 286 432 L 293 410 L 270 401 L 264 426"/>
  <path class="p3" d="M 112 339 L 135 348 L 152 313 L 130 302 L 112 339"/>
  <line x1="112" y1="339" x2="130" y2="302"/>
  <path class="p3" d="M 135 348 L 157 357 L 174 325 L 152 313 L 135 348"/>
  <path class="p3" d="M 130 302 L 152 313 L 171 280 L 151 267 L 130 302"/>
  <line x1="130" y1="302" x2="151" y2="267"/>
  <path class="p3" d="M 152 313 L 174 325 L 191 292 L 171 280 L 152 313"/>
  <path class="p3" d="M 157 357 L 180 366 L 196 335 L 174 325 L 157 357"/>
  <path class="p3" d="M 180 366 L 203 375 L 217 346 L 196 335 L 180 366"/>
  <path class="p3" d="M 174 325 L 196 335 L 212 305 L 191 292 L 174 325"/>
  <path class="p3" d="M 196 335 L 217 346 L 232 318 L 212 305 L 196 335"/>
  <path class="p3" d="M 151 267 L 171 280 L 194 248 L 175 234 L 151 267"/>
  <line x1="151" y1="267" x2="175" y2="234"/>
  <path class="p3" d="M 171 280 L 191 292 L 212 262 L 194 248 L 171 280"/>
  <path class="p3" d="M 175 234 L 194 248 L 218 218 L 203 203 L 175 234"/>
  <line x1="175" y1="234" x2="203" y2="203"/>
  <path class="p3" d="M 194 248 L 212 262 L 232 232 L 218 218 L 194 248"/>
  <path class="p3" d="M 191 292 L 212 305 L 229 276 L 212 262 L 191 292"/>
  <path class="p3" d="M 212 305 L 232 318 L 247 290 L 229 276 L 212 305"/>
  <path class="p3" d="M 212 262 L 229 276 L 247 247 L 232 232 L 212 262"/>
  <path class="p3" d="M 229 276 L 247 290 L 261 261 L 247 247 L 229 276"/>
  <path class="p3" d="M 203 375 L 225 383 L 238 357 L 217 346 L 203 375"/>
  <path class="p3" d="M 225 383 L 248 392 L 259 367 L 238 357 L 225 383"/>
  <path class="p3" d="M 217 346 L 238 357 L 251 330 L 232 318 L 217 346"/>
  <path class="p3" d="M 238 357 L 259 367 L 269 341 L 251 330 L 238 357"/>
  <path class="p3" d="M 248 392 L 270 401 L 279 377 L 259 367 L 248 392"/>
  <path class="p3" d="M 270 401 L 293 410 L 300 387 L 279 377 L 270 401"/>
  <path class="p3" d="M 259 367 L 279 377 L 288 353 L 269 341 L 259 367"/>
  <path class="p3" d="M 279 377 L 300 387 L 306 365 L 288 353 L 279 377"/>
  <path class="p3" d="M 232 318 L 251 330 L 263 303 L 247 290 L 232 318"/>
  <path class="p3" d="M 251 330 L 269 341 L 280 316 L 263 303 L 251 330"/>
  <path class="p3" d="M 247 290 L 263 303 L 276 276 L 261 261 L 247 290"/>
  <path class="p3" d="M 263 303 L 280 316 L 291 291 L 276 276 L 263 303"/>
  <path class="p3" d="M 269 341 L 288 353 L 297 329 L 280 316 L 269 341"/>
  <path class="p3" d="M 288 353 L 306 365 L 313 342 L 297 329 L 288 353"/>
  <path class="p3" d="M 280 316 L 297 329 L 305 305 L 291 291 L 280 316"/>
  <path class="p3" d="M 297 329 L 313 342 L 320 320 L 305 305 L 297 329"/>
  <path class="p3" d="M 500 500 L 471 500 L 472 528 L 500 529 L 500 500"/>
  <path class="p3" d="M 471 500 L 442 500 L 443 528 L 472 528 L 471 500"/>
  <path class="p3" d="M 500 529 L 472 528 L 472 557 L 500 558 L 500 529"/>
  <path class="p3" d="M 472 528 L 443 528 L 445 555 L 472 557 L 472 528"/>
  <path class="p3" d="M 442 500 L 412 500 L 415 527 L 443 528 L 442 500"/>
  <path class="p3" d="M 412 500 L 383 500 L 386 526 L 415 527 L 412 500"/>
  <path class="p3" d="M 443 528 L 415 527 L 417 553 L 445 555 L 443 528"/>
  <path class="p3" d="M 415 527 L 386 526 L 390 552 L 417 553 L 415 527"/>
  <path class="p3" d="M 500 558 L 472 557 L 473 585 L 500 588 L 500 558"/>
  <path class="p3" d="M 472 557 L 445 555 L 447 583 L 473 585 L 472 557"/>
  <path class="p3" d="M 500 588 L 473 585 L 474 614 L 500 617 L 500 588"/>
  <path class="p3" d="M 473 585 L 447 583 L 448 610 L 474 614 L 473 585"/>
  <path class="p3" d="M 445 555 L 417 553 L 420 580 L 447 583 L 445 555"/>
  <path class="p3" d="M 417 553 L 390 552 L 393 578 L 420 580 L 417 553"/>
  <path class="p3" d="M 447 583 L 420 580 L 422 607 L 448 610 L 447 583"/>
  <path class="p3" d="M 420 580 L 393 578 L 397 603 L 422 607 L 420 580"/>
  <path class="p3" d="M 383 500 L 354 500 L 358 525 L 386 526 L 383 500"/>
  <path class="p3" d="M 354 500 L 325 500 L 330 524 L 358 525 L 354 500"/>
  <path class="p3" d="M 386 526 L 358 525 L 362 550 L 390 552 L 386 526"/>
  <path class="p3" d="M 358 525 L 330 524 L 335 548 L 362 550 L 358 525"/>
  <path class="p3" d="M 325 500 L 295 500 L 301 523 L 330 524 L 325 500"/>
  <path class="p3" d="M 295 500 L 266 500 L 273 523 L 301 523 L 295 500"/>
  <path class="p3" d="M 330 524 L 301 523 L 307 547 L 335 548 L 330 524"/>
  <path class="p3" d="M 301 523 L 273 523 L 280 545 L 307 547 L 301 523"/>
  <path class="p3" d="M 390 552 L 362 550 L 366 575 L 393 578 L 390 552"/>
  <path class="p3" d="M 362 550 L 335 548 L 340 573 L 366 575 L 362 550"/>
  <path class="p3" d="M 393 578 L 366 575 L 371 600 L 397 603 L 393 578"/>
  <path class="p3" d="M 366 575 L 340 573 L 345 597 L 371 600 L 366 575"/>
  <path class="p3" d="M 335 548 L 307 547 L 313 570 L 340 573 L 335 548"/>
  <path class="p3" d="M 307 547 L 280 545 L 286 568 L 313 570 L 307 547"/>
  <path class="p3" d="M 340 573 L 313 570 L 319 593 L 345 597 L 340 573"/>
  <path class="p3" d="M 313 570 L 286 568 L 293 590 L 319 593 L 313 570"/>
  <path class="p3" d="M 500 617 L 474 614 L 475 642 L 500 646 L 500 617"/>
  <path class="p3" d="M 474 614 L 448 610 L 450 638 L 475 642 L 474 614"/>
  <path class="p3" d="M 500 646 L 475 642 L 476 670 L 500 675 L 500 646"/>
  <path class="p3" d="M 475 642 L 450 638 L 452 665 L 476 670 L 475 642"/>
  <path class="p3" d="M 448 610 L 422 607 L 425 634 L 450 638 L 448 610"/>
  <path class="p3" d="M 422 607 L 397 603 L 400 629 L 425 634 L 422 607"/>
  <path class="p3" d="M 450 638 L 425 634 L 427 660 L 452 665 L 450 638"/>
  <path class="p3" d="M 425 634 L 400 629 L 403 655 L 427 660 L 425 634"/>
  <path class="p3" d="M 500 675 L 476 670 L 477 699 L 500 705 L 500 675"/>
  <path class="p3" d="M 476 670 L 452 665 L 453 693 L 477 699 L 476 670"/>
  <path class="p3" d="M 500 705 L 477 699 L 477 727 L 500 734 L 500 705"/>
  <path class="p3" d="M 477 699 L 453 693 L 455 720 L 477 727 L 477 699"/>
  <path class="p3" d="M 452 665 L 427 660 L 430 687 L 453 693 L 452 665"/>
  <path class="p3" d="M 427 660 L 403 655 L 407 681 L 430 687 L 427 660"/>
  <path class="p3" d="M 453 693 L 430 687 L 432 714 L 455 720 L 453 693"/>
  <path class="p3" d="M 430 687 L 407 681 L 410 707 L 432 714 L 430 687"/>
  <path class="p3" d="M 397 603 L 371 600 L 375 625 L 400 629 L 397 603"/>
  <path class="p3" d="M 371 600 L 345 597 L 350 621 L 375 625 L 371 600"/>
  <path class="p3" d="M 400 629 L 375 625 L 379 650 L 403 655 L 400 629"/>
  <path class="p3" d="M 375 625 L 350 621 L 355 645 L 379 650 L 375 625"/>
  <path class="p3" d="M 345 597 L 319 593 L 325 617 L 350 621 L 345 597"/>
  <path class="p3" d="M 319 593 L 293 590 L 300 613 L 325 617 L 319 593"/>
  <path class="p3" d="M 350 621 L 325 617 L 331 640 L 355 645 L 350 621"/>
  <path class="p3" d="M 325 617 L 300 613 L 306 635 L 331 640 L 325 617"/>
  <path class="p3" d="M 403 655 L 379 650 L 383 675 L 407 681 L 403 655"/>
  <path class="p3" d="M 379 650 L 355 645 L 360 669 L 383 675 L 379 650"/>
  <path class="p3" d="M 407 681 L 383 675 L 387 700 L 410 707 L 407 681"/>
  <path class="p3" d="M 383 675 L 360 669 L 365 694 L 387 700 L 383 675"/>
  <path class="p3" d="M 355 645 L 331 640 L 337 663 L 360 669 L 355 645"/>
  <path class="p3" d="M 331 640 L 306 635 L 313 658 L 337 663 L 331 640"/>
  <path class="p3" d="M 360 669 L 337 663 L 342 687 L 365 694 L 360 669"/>
  <path class="p3" d="M 337 663 L 313 658 L 320 680 L 342 687 L 337 663"/>
  <path class="p3" d="M 80 500 L 82 541 L 107 539 L 103 500 L 80 500"/>
  <line x1="80" y1="500" x2="82" y2="541"/>
  <path class="p3" d="M 82 541 L 88 582 L 113 577 L 107 539 L 82 541"/>
  <line x1="82" y1="541" x2="88" y2="582"/>
  <path class="p3" d="M 103 500 L 107 539 L 132 536 L 127 500 L 103 500"/>
  <path class="p3" d="M 107 539 L 113 577 L 138 572 L 132 536 L 107 539"/>
  <path class="p3" d="M 88 582 L 98 622 L 123 615 L 113 577 L 88 582"/>
  <line x1="88" y1="582" x2="98" y2="622"/>
  <path class="p3" d="M 98 622 L 112 661 L 135 652 L 123 615 L 98 622"/>
  <line x1="98" y1="622" x2="112" y2="661"/>
  <path class="p3" d="M 113 577 L 123 615 L 148 608 L 138 572 L 113 577"/>
  <path class="p3" d="M 123 615 L 135 652 L 157 643 L 148 608 L 123 615"/>
  <path class="p3" d="M 127 500 L 132 536 L 156 534 L 150 500 L 127 500"/>
  <path class="p3" d="M 132 536 L 138 572 L 163 568 L 156 534 L 132 536"/>
  <path class="p3" d="M 150 500 L 156 534 L 180 531 L 173 500 L 150 500"/>
  <path class="p3" d="M 156 534 L 163 568 L 188 563 L 180 531 L 156 534"/>
  <path class="p3" d="M 138 572 L 148 608 L 171 601 L 163 568 L 138 572"/>
  <path class="p3" d="M 148 608 L 157 643 L 180 634 L 171 601 L 148 608"/>
  <path class="p3" d="M 163 568 L 171 601 L 195 594 L 188 563 L 163 568"/>
  <path class="p3" d="M 171 601 L 180 634 L 203 625 L 195 594 L 171 601"/>
  <path class="p3" d="M 112 661 L 130 698 L 152 687 L 135 652 L 112 661"/>
  <line x1="112" y1="661" x2="130" y2="698"/>
  <path class="p3" d="M 130 698 L 151 733 L 171 720 L 152 687 L 130 698"/>
  <line x1="130" y1="698" x2="151" y2="733"/>
  <path class="p3" d="M 135 652 L 152 687 L 174 675 L 157 643 L 135 652"/>
  <path class="p3" d="M 152 687 L 171 720 L 191 708 L 174 675 L 152 687"/>
  <path class="p3" d="M 151 733 L 175 766 L 194 752 L 171 720 L 151 733"/>
  <line x1="151" y1="733" x2="175" y2="766"/>
  <path class="p3" d="M 175 766 L 203 797 L 218 782 L 194 752 L 175 766"/>
  <line x1="175" y1="766" x2="203" y2="797"/>
  <path class="p3" d="M 171 720 L 194 752 L 212 738 L 191 708 L 171 720"/>
  <path class="p3" d="M 194 752 L 218 782 L 232 768 L 212 738 L 194 752"/>
  <path class="p3" d="M 157 643 L 174 675 L 196 665 L 180 634 L 157 643"/>
  <path class="p3" d="M 174 675 L 191 708 L 212 695 L 196 665 L 174 675"/>
  <path class="p3" d="M 180 634 L 196 665 L 217 654 L 203 625 L 180 634"/>
  <path class="p3" d="M 196 665 L 212 695 L 232 682 L 217 654 L 196 665"/>
  <path class="p3" d="M 191 708 L 212 738 L 229 724 L 212 695 L 191 708"/>
  <path class="p3" d="M 212 738 L 232 768 L 247 753 L 229 724 L 212 738"/>
  <path class="p3" d="M 212 695 L 229 724 L 247 710 L 232 682 L 212 695"/>
  <path class="p3" d="M 229 724 L 247 753 L 261 739 L 247 710 L 229 724"/>
  <path class="p3" d="M 173 500 L 180 531 L 204 529 L 196 500 L 173 500"/>
  <path class="p3" d="M 180 531 L 188 563 L 211 558 L 204 529 L 180 531"/>
  <path class="p3" d="M 196 500 L 204 529 L 227 527 L 220 500 L 196 500"/>
  <path class="p3" d="M 204 529 L 211 558 L 234 554 L 227 527 L 204 529"/>
  <path class="p3" d="M 188 563 L 195 594 L 218 587 L 211 558 L 188 563"/>
  <path class="p3" d="M 195 594 L 203 625 L 225 617 L 218 587 L 195 594"/>
  <path class="p3" d="M 211 558 L 218 587 L 241 581 L 234 554 L 211 558"/>
  <path class="p3" d="M 218 587 L 225 617 L 248 608 L 241 581 L 218 587"/>
  <path class="p3" d="M 220 500 L 227 527 L 250 525 L 243 500 L 220 500"/>
  <path class="p3" d="M 227 527 L 234 554 L 257 549 L 250 525 L 227 527"/>
  <path class="p3" d="M 243 500 L 250 525 L 273 523 L 266 500 L 243 500"/>
  <path class="p3" d="M 250 525 L 257 549 L 280 545 L 273 523 L 250 525"/>
  <path class="p3" d="M 234 554 L 241 581 L 264 574 L 257 549 L 234 554"/>
  <path class="p3" d="M 241 581 L 248 608 L 270 599 L 264 574 L 241 581"/>
  <path class="p3" d="M 257 549 L 264 574 L 286 568 L 280 545 L 257 549"/>
  <path class="p3" d="M 264 574 L 270 599 L 293 590 L 286 568 L 264 574"/>
  <path class="p3" d="M 203 625 L 217 654 L 238 643 L 225 617 L 203 625"/>
  <path class="p3" d="M 217 654 L 232 682 L 251 670 L 238 643 L 217 654"/>
  <path class="p3" d="M 225 617 L 238 643 L 259 633 L 248 608 L 225 617"/>
  <path class="p3" d="M 238 643 L 251 670 L 269 659 L 259 633 L 238 643"/>
  <path class="p3" d="M 232 682 L 247 710 L 263 697 L 251 670 L 232 682"/>
  <path class="p3" d="M 247 710 L 261 739 L 276 724 L 263 697 L 247 710"/>
  <path class="p3" d="M 251 670 L 263 697 L 280 684 L 269 659 L 251 670"/>
  <path class="p3" d="M 263 697 L 276 724 L 291 709 L 280 684 L 263 697"/>
  <path class="p3" d="M 248 608 L 259 633 L 279 623 L 270 599 L 248 608"/>
  <path class="p3" d="M 259 633 L 269 659 L 288 647 L 279 623 L 259 633"/>
  <path class="p3" d="M 270 599 L 279 623 L 300 613 L 293 590 L 270 599"/>
  <path class="p3" d="M 279 623 L 288 647 L 306 635 L 300 613 L 279 623"/>
  <path class="p3" d="M 269 659 L 280 684 L 297 671 L 288 647 L 269 659"/>
  <path class="p3" d="M 280 684 L 291 709 L 305 695 L 297 671 L 280 684"/>
  <path class="p3" d="M 288 647 L 297 671 L 313 658 L 306 635 L 288 647"/>
  <path class="p3" d="M 297 671 L 305 695 L 320 680 L 313 658 L 297 671"/>
  <path class="p3" d="M 500 920 L 500 897 L 461 893 L 459 918 L 500 920"/>
  <line x1="500" y1="920" x2="459" y2="918"/>
  <path class="p3" d="M 500 897 L 500 873 L 464 868 L 461 893 L 500 897"/>
  <path class="p3" d="M 459 918 L 461 893 L 423 887 L 418 912 L 459 918"/>
  <line x1="459" y1="918" x2="418" y2="912"/>
  <path class="p3" d="M 461 893 L 464 868 L 428 862 L 423 887 L 461 893"/>
  <path class="p3" d="M 500 873 L 500 850 L 466 844 L 464 868 L 500 873"/>
  <path class="p3" d="M 500 850 L 500 827 L 469 820 L 466 844 L 500 850"/>
  <path class="p3" d="M 464 868 L 466 844 L 432 837 L 428 862 L 464 868"/>
  <path class="p3" d="M 466 844 L 469 820 L 437 812 L 432 837 L 466 844"/>
  <path class="p3" d="M 418 912 L 423 887 L 385 877 L 378 902 L 418 912"/>
  <line x1="418" y1="912" x2="378" y2="902"/>
  <path class="p3" d="M 423 887 L 428 862 L 392 852 L 385 877 L 423 887"/>
  <path class="p3" d="M 378 902 L 385 877 L 348 865 L 339 888 L 378 902"/>
  <line x1="378" y1="902" x2="339" y2="888"/>
  <path class="p3" d="M 385 877 L 392 852 L 357 843 L 348 865 L 385 877"/>
  <path class="p3" d="M 428 862 L 432 837 L 399 829 L 392 852 L 428 862"/>
  <path class="p3" d="M 432 837 L 437 812 L 406 805 L 399 829 L 432 837"/>
  <path class="p3" d="M 392 852 L 399 829 L 366 820 L 357 843 L 392 852"/>
  <path class="p3" d="M 399 829 L 406 805 L 375 797 L 366 820 L 399 829"/>
  <path class="p3" d="M 500 827 L 500 804 L 471 796 L 469 820 L 500 827"/>
  <path class="p3" d="M 500 804 L 500 780 L 473 773 L 471 796 L 500 804"/>
  <path class="p3" d="M 469 820 L 471 796 L 442 789 L 437 812 L 469 820"/>
  <path class="p3" d="M 471 796 L 473 773 L 446 766 L 442 789 L 471 796"/>
  <path class="p3" d="M 500 780 L 500 757 L 475 750 L 473 773 L 500 780"/>
  <path class="p3" d="M 500 757 L 500 734 L 477 727 L 475 750 L 500 757"/>
  <path class="p3" d="M 473 773 L 475 750 L 451 743 L 446 766 L 473 773"/>
  <path class="p3" d="M 475 750 L 477 727 L 455 720 L 451 743 L 475 750"/>
  <path class="p3" d="M 437 812 L 442 789 L 413 782 L 406 805 L 437 812"/>
  <path class="p3" d="M 442 789 L 446 766 L 419 759 L 413 782 L 442 789"/>
  <path class="p3" d="M 406 805 L 413 782 L 383 775 L 375 797 L 406 805"/>
  <path class="p3" d="M 413 782 L 419 759 L 392 752 L 383 775 L 413 782"/>
  <path class="p3" d="M 446 766 L 451 743 L 426 736 L 419 759 L 446 766"/>
  <path class="p3" d="M 451 743 L 455 720 L 432 714 L 426 736 L 451 743"/>
  <path class="p3" d="M 419 759 L 426 736 L 401 730 L 392 752 L 419 759"/>
  <path class="p3" d="M 426 736 L 432 714 L 410 707 L 401 730 L 426 736"/>
  <path class="p3" d="M 339 888 L 348 865 L 313 848 L 302 870 L 339 888"/>
  <line x1="339" y1="888" x2="302" y2="870"/>
  <path class="p3" d="M 348 865 L 357 843 L 325 826 L 313 848 L 348 865"/>
  <path class="p3" d="M 302 870 L 313 848 L 280 829 L 267 849 L 302 870"/>
  <line x1="302" y1="870" x2="267" y2="849"/>
  <path class="p3" d="M 313 848 L 325 826 L 292 809 L 280 829 L 313 848"/>
  <path class="p3" d="M 357 843 L 366 820 L 335 804 L 325 826 L 357 843"/>
  <path class="p3" d="M 366 820 L 375 797 L 346 783 L 335 804 L 366 820"/>
  <path class="p3" d="M 325 826 L 335 804 L 305 788 L 292 809 L 325 826"/>
  <path class="p3" d="M 335 804 L 346 783 L 318 768 L 305 788 L 335 804"/>
  <path class="p3" d="M 267 849 L 280 829 L 248 806 L 234 825 L 267 849"/>
  <line x1="267" y1="849" x2="234" y2="825"/>
  <path class="p3" d="M 280 829 L 292 809 L 262 788 L 248 806 L 280 829"/>
  <path class="p3" d="M 234 825 L 248 806 L 218 782 L 203 797 L 234 825"/>
  <line x1="234" y1="825" x2="203" y2="797"/>
  <path class="p3" d="M 248 806 L 262 788 L 232 768 L 218 782 L 248 806"/>
  <path class="p3" d="M 292 809 L 305 788 L 276 771 L 262 788 L 292 809"/>
  <path class="p3" d="M 305 788 L 318 768 L 290 753 L 276 771 L 305 788"/>
  <path class="p3" d="M 262 788 L 276 771 L 247 753 L 232 768 L 262 788"/>
  <path class="p3" d="M 276 771 L 290 753 L 261 739 L 247 753 L 276 771"/>
  <path class="p3" d="M 375 797 L 383 775 L 357 762 L 346 783 L 375 797"/>
  <path class="p3" d="M 383 775 L 392 752 L 367 741 L 357 762 L 383 775"/>
  <path class="p3" d="M 346 783 L 357 762 L 330 749 L 318 768 L 346 783"/>
  <path class="p3" d="M 357 762 L 367 741 L 341 731 L 330 749 L 357 762"/>
  <path class="p3" d="M 392 752 L 401 730 L 377 721 L 367 741 L 392 752"/>
  <path class="p3" d="M 401 730 L 410 707 L 387 700 L 377 721 L 401 730"/>
  <path class="p3" d="M 367 741 L 377 721 L 353 712 L 341 731 L 367 741"/>
  <path class="p3" d="M 377 721 L 387 700 L 365 694 L 353 712 L 377 721"/>
  <path class="p3" d="M 318 768 L 330 749 L 303 737 L 290 753 L 318 768"/>
  <path class="p3" d="M 330 749 L 341 731 L 316 720 L 303 737 L 330 749"/>
  <path class="p3" d="M 290 753 L 303 737 L 276 724 L 261 739 L 290 753"/>
  <path class="p3" d="M 303 737 L 316 720 L 291 709 L 276 724 L 303 737"/>
  <path class="p3" d="M 341 731 L 353 712 L 329 703 L 316 720 L 341 731"/>
  <path class="p3" d="M 353 712 L 365 694 L 342 687 L 329 703 L 353 712"/>
  <path class="p3" d="M 316 720 L 329 703 L 305 695 L 291 709 L 316 720"/>
  <path class="p3" d="M 329 703 L 342 687 L 320 680 L 305 695 L 329 703"/>
  <path class="p3" d="M 500 500 L 500 529 L 528 528 L 529 500 L 500 500"/>
  <path class="p3" d="M 500 529 L 500 558 L 528 557 L 528 528 L 500 529"/>
  <path class="p3" d="M 529 500 L 528 528 L 557 528 L 558 500 L 529 500"/>
  <path class="p3" d="M 528 528 L 528 557 L 555 555 L 557 528 L 528 528"/>
  <path class="p3" d="M 500 558 L 500 588 L 527 585 L 528 557 L 500 558"/>
  <path class="p3" d="M 500 588 L 500 617 L 526 614 L 527 585 L 500 588"/>
  <path class="p3" d="M 528 557 L 527 585 L 553 583 L 555 555 L 528 557"/>
  <path class="p3" d="M 527 585 L 526 614 L 552 610 L 553 583 L 527 585"/>
  <path class="p3" d="M 558 500 L 557 528 L 585 527 L 588 500 L 558 500"/>
  <path class="p3" d="M 557 528 L 555 555 L 583 553 L 585 527 L 557 528"/>
  <path class="p3" d="M 588 500 L 585 527 L 614 526 L 617 500 L 588 500"/>
  <path class="p3" d="M 585 527 L 583 553 L 610 552 L 614 526 L 585 527"/>
  <path class="p3" d="M 555 555 L 553 583 L 580 580 L 583 553 L 555 555"/>
  <path class="p3" d="M 553 583 L 552 610 L 578 607 L 580 580 L 553 583"/>
  <path class="p3" d="M 583 553 L 580 580 L 607 578 L 610 552 L 583 553"/>
  <path class="p3" d="M 580 580 L 578 607 L 603 603 L 607 578 L 580 580"/>
  <path class="p3" d="M 500 617 L 500 646 L 525 642 L 526 614 L 500 617"/>
  <path class="p3" d="M 500 646 L 500 675 L 524 670 L 525 642 L 500 646"/>
  <path class="p3" d="M 526 614 L 525 642 L 550 638 L 552 610 L 526 614"/>
  <path class="p3" d="M 525 642 L 524 670 L 548 665 L 550 638 L 525 642"/>
  <path class="p3" d="M 500 675 L 500 705 L 523 699 L 524 670 L 500 675"/>
  <path class="p3" d="M 500 705 L 500 734 L 523 727 L 523 699 L 500 705"/>
  <path class="p3" d="M 524 670 L 523 699 L 547 693 L 548 665 L 524 670"/>
  <path class="p3" d="M 523 699 L 523 727 L 545 720 L 547 693 L 523 699"/>
  <path class="p3" d="M 552 610 L 550 638 L 575 634 L 578 607 L 552 610"/>
  <path class="p3" d="M 550 638 L 548 665 L 573 660 L 575 634 L 550 638"/>
  <path class="p3" d="M 578 607 L 575 634 L 600 629 L 603 603 L 578 607"/>
  <path class="p3" d="M 575 634 L 573 660 L 597 655 L 600 629 L 575 634"/>
  <path class="p3" d="M 548 665 L 547 693 L 570 687 L 573 660 L 548 665"/>
  <path class="p3" d="M 547 693 L 545 720 L 568 714 L 570 687 L 547 693"/>
  <path class="p3" d="M 573 660 L 570 687 L 593 681 L 597 655 L 573 660"/>
  <path class="p3" d="M 570 687 L 568 714 L 590 707 L 593 681 L 570 687"/>
  <path class="p3" d="M 617 500 L 614 526 L 642 525 L 646 500 L 617 500"/>
  <path class="p3" d="M 614 526 L 610 552 L 638 550 L 642 525 L 614 526"/>
  <path class="p3" d="M 646 500 L 642 525 L 670 524 L 675 500 L 646 500"/>
  <path class="p3" d="M 642 525 L 638 550 L 665 548 L 670 524 L 642 525"/>
  <path class="p3" d="M 610 552 L 607 578 L 634 575 L 638 550 L 610 552"/>
  <path class="p3" d="M 607 578 L 603 603 L 629 600 L 634 575 L 607 578"/>
  <path class="p3" d="M 638 550 L 634 575 L 660 573 L 665 548 L 638 550"/>
  <path class="p3" d="M 634 575 L 629 600 L 655 597 L 660 573 L 634 575"/>
  <path class="p3" d="M 675 500 L 670 524 L 699 523 L 705 500 L 675 500"/>
  <path class="p3" d="M 670 524 L 665 548 L 693 547 L 699 523 L 670 524"/>
  <path class="p3" d="M 705 500 L 699 523 L 727 523 L 734 500 L 705 500"/>
  <path class="p3" d="M 699 523 L 693 547 L 720 545 L 727 523 L 699 523"/>
  <path class="p3" d="M 665 548 L 660 573 L 687 570 L 693 547 L 665 548"/>
  <path class="p3" d="M 660 573 L 655 597 L 681 593 L 687 570 L 660 573"/>
  <path class="p3" d="M 693 547 L 687 570 L 714 568 L 720 545 L 693 547"/>
  <path class="p3" d="M 687 570 L 681 593 L 707 590 L 714 568 L 687 570"/>
  <path class="p3" d="M 603 603 L 600 629 L 625 625 L 629 600 L 603 603"/>
  <path class="p3" d="M 600 629 L 597 655 L 621 650 L 625 625 L 600 629"/>
  <path class="p3" d="M 629 600 L 625 625 L 650 621 L 655 597 L 629 600"/>
  <path class="p3" d="M 625 625 L 621 650 L 645 645 L 650 621 L 625 625"/>
  <path class="p3" d="M 597 655 L 593 681 L 617 675 L 621 650 L 597 655"/>
  <path class="p3" d="M 593 681 L 590 707 L 613 700 L 617 675 L 593 681"/>
  <path class="p3" d="M 621 650 L 617 675 L 640 669 L 645 645 L 621 650"/>
  <path class="p3" d="M 617 675 L 613 700 L 635 694 L 640 669 L 617 675"/>
  <path class="p3" d="M 655 597 L 650 621 L 675 617 L 681 593 L 655 597"/>
  <path class="p3" d="M 650 621 L 645 645 L 669 640 L 675 617 L 650 621"/>
  <path class="p3" d="M 681 593 L 675 617 L 700 613 L 707 590 L 681 593"/>
  <path class="p3" d="M 675 617 L 669 640 L 694 635 L 700 613 L 675 617"/>
  <path class="p3" d="M 645 645 L 640 669 L 663 663 L 669 640 L 645 645"/>
  <path class="p3" d="M 640 669 L 635 694 L 658 687 L 663 663 L 640 669"/>
  <path class="p3" d="M 669 640 L 663 663 L 687 658 L 694 635 L 669 640"/>
  <path class="p3" d="M 663 663 L 658 687 L 680 680 L 687 658 L 663 663"/>
  <path class="p3" d="M 500 920 L 541 918 L 539 893 L 500 897 L 500 920"/>
  <line x1="500" y1="920" x2="541" y2="918"/>
  <path class="p3" d="M 541 918 L 582 912 L 577 887 L 539 893 L 541 918"/>
  <line x1="541" y1="918" x2="582" y2="912"/>
  <path class="p3" d="M 500 897 L 539 893 L 536 868 L 500 873 L 500 897"/>
  <path class="p3" d="M 539 893 L 577 887 L 572 862 L 536 868 L 539 893"/>
  <path class="p3" d="M 582 912 L 622 902 L 615 877 L 577 887 L 582 912"/>
  <line x1="582" y1="912" x2="622" y2="902"/>
  <path class="p3" d="M 622 902 L 661 888 L 652 865 L 615 877 L 622 902"/>
  <line x1="622" y1="902" x2="661" y2="888"/>
  <path class="p3" d="M 577 887 L 615 877 L 608 852 L 572 862 L 577 887"/>
  <path class="p3" d="M 615 877 L 652 865 L 643 843 L 608 852 L 615 877"/>
  <path class="p3" d="M 500 873 L 536 868 L 534 844 L 500 850 L 500 873"/>
  <path class="p3" d="M 536 868 L 572 862 L 568 837 L 534 844 L 536 868"/>
  <path class="p3" d="M 500 850 L 534 844 L 531 820 L 500 827 L 500 850"/>
  <path class="p3" d="M 534 844 L 568 837 L 563 812 L 531 820 L 534 844"/>
  <path class="p3" d="M 572 862 L 608 852 L 601 829 L 568 837 L 572 862"/>
  <path class="p3" d="M 608 852 L 643 843 L 634 820 L 601 829 L 608 852"/>
  <path class="p3" d="M 568 837 L 601 829 L 594 805 L 563 812 L 568 837"/>
  <path class="p3" d="M 601 829 L 634 820 L 625 797 L 594 805 L 601 829"/>
  <path class="p3" d="M 661 888 L 698 870 L 687 848 L 652 865 L 661 888"/>
  <line x1="661" y1="888" x2="698" y2="870"/>
  <path class="p3" d="M 698 870 L 733 849 L 720 829 L 687 848 L 698 870"/>
  <line x1="698" y1="870" x2="733" y2="849"/>
  <path class="p3" d="M 652 865 L 687 848 L 675 826 L 643 843 L 652 865"/>
  <path class="p3" d="M 687 848 L 720 829 L 708 809 L 675 826 L 687 848"/>
  <path class="p3" d="M 733 849 L 766 825 L 752 806 L 720 829 L 733 849"/>
  <line x1="733" y1="849" x2="766" y2="825"/>
  <path class="p3" d="M 766 825 L 797 797 L 782 782 L 752 806 L 766 825"/>
  <line x1="766" y1="825" x2="797" y2="797"/>
  <path class="p3" d="M 720 829 L 752 806 L 738 788 L 708 809 L 720 829"/>
  <path class="p3" d="M 752 806 L 782 782 L 768 768 L 738 788 L 752 806"/>
  <path class="p3" d="M 643 843 L 675 826 L 665 804 L 634 820 L 643 843"/>
  <path class="p3" d="M 675 826 L 708 809 L 695 788 L 665 804 L 675 826"/>
  <path class="p3" d="M 634 820 L 665 804 L 654 783 L 625 797 L 634 820"/>
  <path class="p3" d="M 665 804 L 695 788 L 682 768 L 654 783 L 665 804"/>
  <path class="p3" d="M 708 809 L 738 788 L 724 771 L 695 788 L 708 809"/>
  <path class="p3" d="M 738 788 L 768 768 L 753 753 L 724 771 L 738 788"/>
  <path class="p3" d="M 695 788 L 724 771 L 710 753 L 682 768 L 695 788"/>
  <path class="p3" d="M 724 771 L 753 753 L 739 739 L 710 753 L 724 771"/>
  <path class="p3" d="M 500 827 L 531 820 L 529 796 L 500 804 L 500 827"/>
  <path class="p3" d="M 531 820 L 563 812 L 558 789 L 529 796 L 531 820"/>
  <path class="p3" d="M 500 804 L 529 796 L 527 773 L 500 780 L 500 804"/>
  <path class="p3" d="M 529 796 L 558 789 L 554 766 L 527 773 L 529 796"/>
  <path class="p3" d="M 563 812 L 594 805 L 587 782 L 558 789 L 563 812"/>
  <path class="p3" d="M 594 805 L 625 797 L 617 775 L 587 782 L 594 805"/>
  <path class="p3" d="M 558 789 L 587 782 L 581 759 L 554 766 L 558 789"/>
  <path class="p3" d="M 587 782 L 617 775 L 608 752 L 581 759 L 587 782"/>
  <path class="p3" d="M 500 780 L 527 773 L 525 750 L 500 757 L 500 780"/>
  <path class="p3" d="M 527 773 L 554 766 L 549 743 L 525 750 L 527 773"/>
  <path class="p3" d="M 500 757 L 525 750 L 523 727 L 500 734 L 500 757"/>
  <path class="p3" d="M 525 750 L 549 743 L 545 720 L 523 727 L 525 750"/>
  <path class="p3" d="M 554 766 L 581 759 L 574 736 L 549 743 L 554 766"/>
  <path class="p3" d="M 581 759 L 608 752 L 599 730 L 574 736 L 581 759"/>
  <path class="p3" d="M 549 743 L 574 736 L 568 714 L 545 720 L 549 743"/>
  <path class="p3" d="M 574 736 L 599 730 L 590 707 L 568 714 L 574 736"/>
  <path class="p3" d="M 625 797 L 654 783 L 643 762 L 617 775 L 625 797"/>
  <path class="p3" d="M 654 783 L 682 768 L 670 749 L 643 762 L 654 783"/>
  <path class="p3" d="M 617 775 L 643 762 L 633 741 L 608 752 L 617 775"/>
  <path class="p3" d="M 643 762 L 670 749 L 659 731 L 633 741 L 643 762"/>
  <path class="p3" d="M 682 768 L 710 753 L 697 737 L 670 749 L 682 768"/>
  <path class="p3" d="M 710 753 L 739 739 L 724 724 L 697 737 L 710 753"/>
  <path class="p3" d="M 670 749 L 697 737 L 684 720 L 659 731 L 670 749"/>
  <path class="p3" d="M 697 737 L 724 724 L 709 709 L 684 720 L 697 737"/>
  <path class="p3" d="M 608 752 L 633 741 L 623 721 L 599 730 L 608 752"/>
  <path class="p3" d="M 633 741 L 659 731 L 647 712 L 623 721 L 633 741"/>
  <path class="p3" d="M 599 730 L 623 721 L 613 700 L 590 707 L 599 730"/>
  <path class="p3" d="M 623 721 L 647 712 L 635 694 L 613 700 L 623 721"/>
  <path class="p3" d="M 659 731 L 684 720 L 671 703 L 647 712 L 659 731"/>
  <path class="p3" d="M 684 720 L 709 709 L 695 695 L 671 703 L 684 720"/>
  <path class="p3" d="M 647 712 L 671 703 L 658 687 L 635 694 L 647 712"/>
  <path class="p3" d="M 671 703 L 695 695 L 680 680 L 658 687 L 671 703"/>
  <path class="p3" d="M 920 500 L 897 500 L 893 539 L 918 541 L 920 500"/>
  <line x1="920" y1="500" x2="918" y2="541"/>
  <path class="p3" d="M 897 500 L 873 500 L 868 536 L 893 539 L 897 500"/>
  <path class="p3" d="M 918 541 L 893 539 L 887 577 L 912 582 L 918 541"/>
  <line x1="918" y1="541" x2="912" y2="582"/>
  <path class="p3" d="M 893 539 L 868 536 L 862 572 L 887 577 L 893 539"/>
  <path class="p3" d="M 873 500 L 850 500 L 844 534 L 868 536 L 873 500"/>
  <path class="p3" d="M 850 500 L 827 500 L 820 531 L 844 534 L 850 500"/>
  <path class="p3" d="M 868 536 L 844 534 L 837 568 L 862 572 L 868 536"/>
  <path class="p3" d="M 844 534 L 820 531 L 812 563 L 837 568 L 844 534"/>
  <path class="p3" d="M 912 582 L 887 577 L 877 615 L 902 622 L 912 582"/>
  <line x1="912" y1="582" x2="902" y2="622"/>
  <path class="p3" d="M 887 577 L 862 572 L 852 608 L 877 615 L 887 577"/>
  <path class="p3" d="M 902 622 L 877 615 L 865 652 L 888 661 L 902 622"/>
  <line x1="902" y1="622" x2="888" y2="661"/>
  <path class="p3" d="M 877 615 L 852 608 L 843 643 L 865 652 L 877 615"/>
  <path class="p3" d="M 862 572 L 837 568 L 829 601 L 852 608 L 862 572"/>
  <path class="p3" d="M 837 568 L 812 563 L 805 594 L 829 601 L 837 568"/>
  <path class="p3" d="M 852 608 L 829 601 L 820 634 L 843 643 L 852 608"/>
  <path class="p3" d="M 829 601 L 805 594 L 797 625 L 820 634 L 829 601"/>
  <path class="p3" d="M 827 500 L 804 500 L 796 529 L 820 531 L 827 500"/>
  <path class="p3" d="M 804 500 L 780 500 L 773 527 L 796 529 L 804 500"/>
  <path class="p3" d="M 820 531 L 796 529 L 789 558 L 812 563 L 820 531"/>
  <path class="p3" d="M 796 529 L 773 527 L 766 554 L 789 558 L 796 529"/>
  <path class="p3" d="M 780 500 L 757 500 L 750 525 L 773 527 L 780 500"/>
  <path class="p3" d="M 757 500 L 734 500 L 727 523 L 750 525 L 757 500"/>
  <path class="p3" d="M 773 527 L 750 525 L 743 549 L 766 554 L 773 527"/>
  <path class="p3" d="M 750 525 L 727 523 L 720 545 L 743 549 L 750 525"/>
  <path class="p3" d="M 812 563 L 789 558 L 782 587 L 805 594 L 812 563"/>
  <path class="p3" d="M 789 558 L 766 554 L 759 581 L 782 587 L 789 558"/>
  <path class="p3" d="M 805 594 L 782 587 L 775 617 L 797 625 L 805 594"/>
  <path class="p3" d="M 782 587 L 759 581 L 752 608 L 775 617 L 782 587"/>
  <path class="p3" d="M 766 554 L 743 549 L 736 574 L 759 581 L 766 554"/>
  <path class="p3" d="M 743 549 L 720 545 L 714 568 L 736 574 L 743 549"/>
  <path class="p3" d="M 759 581 L 736 574 L 730 599 L 752 608 L 759 581"/>
  <path class="p3" d="M 736 574 L 714 568 L 707 590 L 730 599 L 736 574"/>
  <path class="p3" d="M 888 661 L 865 652 L 848 687 L 870 698 L 888 661"/>
  <line x1="888" y1="661" x2="870" y2="698"/>
  <path class="p3" d="M 865 652 L 843 643 L 826 675 L 848 687 L 865 652"/>
  <path class="p3" d="M 870 698 L 848 687 L 829 720 L 849 733 L 870 698"/>
  <line x1="870" y1="698" x2="849" y2="733"/>
  <path class="p3" d="M 848 687 L 826 675 L 809 708 L 829 720 L 848 687"/>
  <path class="p3" d="M 843 643 L 820 634 L 804 665 L 826 675 L 843 643"/>
  <path class="p3" d="M 820 634 L 797 625 L 783 654 L 804 665 L 820 634"/>
  <path class="p3" d="M 826 675 L 804 665 L 788 695 L 809 708 L 826 675"/>
  <path class="p3" d="M 804 665 L 783 654 L 768 682 L 788 695 L 804 665"/>
  <path class="p3" d="M 849 733 L 829 720 L 806 752 L 825 766 L 849 733"/>
  <line x1="849" y1="733" x2="825" y2="766"/>
  <path class="p3" d="M 829 720 L 809 708 L 788 738 L 806 752 L 829 720"/>
  <path class="p3" d="M 825 766 L 806 752 L 782 782 L 797 797 L 825 766"/>
  <line x1="825" y1="766" x2="797" y2="797"/>
  <path class="p3" d="M 806 752 L 788 738 L 768 768 L 782 782 L 806 752"/>
  <path class="p3" d="M 809 708 L 788 695 L 771 724 L 788 738 L 809 708"/>
  <path class="p3" d="M 788 695 L 768 682 L 753 710 L 771 724 L 788 695"/>
  <path class="p3" d="M 788 738 L 771 724 L 753 753 L 768 768 L 788 738"/>
  <path class="p3" d="M 771 724 L 753 710 L 739 739 L 753 753 L 771 724"/>
  <path class="p3" d="M 797 625 L 775 617 L 762 643 L 783 654 L 797 625"/>
  <path class="p3" d="M 775 617 L 752 608 L 741 633 L 762 643 L 775 617"/>
  <path class="p3" d="M 783 654 L 762 643 L 749 670 L 768 682 L 783 654"/>
  <path class="p3" d="M 762 643 L 741 633 L 731 659 L 749 670 L 762 643"/>
  <path class="p3" d="M 752 608 L 730 599 L 721 623 L 741 633 L 752 608"/>
  <path class="p3" d="M 730 599 L 707 590 L 700 613 L 721 623 L 730 599"/>
  <path class="p3" d="M 741 633 L 721 623 L 712 647 L 731 659 L 741 633"/>
  <path class="p3" d="M 721 623 L 700 613 L 694 635 L 712 647 L 721 623"/>
  <path class="p3" d="M 768 682 L 749 670 L 737 697 L 753 710 L 768 682"/>
  <path class="p3" d="M 749 670 L 731 659 L 720 684 L 737 697 L 749 670"/>
  <path class="p3" d="M 753 710 L 737 697 L 724 724 L 739 739 L 753 710"/>
  <path class="p3" d="M 737 697 L 720 684 L 709 709 L 724 724 L 737 697"/>
  <path class="p3" d="M 731 659 L 712 647 L 703 671 L 720 684 L 731 659"/>
  <path class="p3" d="M 712 647 L 694 635 L 687 658 L 703 671 L 712 647"/>
  <path class="p3" d="M 720 684 L 703 671 L 695 695 L 709 709 L 720 684"/>
  <path class="p3" d="M 703 671 L 687 658 L 680 680 L 695 695 L 703 671"/>

</svg>